<?xml version="1.0" standalone="no"?>
<!DOCTYPE svg PUBLIC "-//W3C//DTD SVG 20010904//EN"
 "http://www.w3.org/TR/2001/REC-SVG-20010904/DTD/svg10.dtd">
<svg version="1.0" xmlns="http://www.w3.org/2000/svg"
 width="620.000000pt" height="640.000000pt" viewBox="0 0 620.000000 640.000000"
 preserveAspectRatio="xMidYMid meet">

<g transform="translate(0.000000,640.000000) scale(0.100000,-0.100000)"
fill="#424242" stroke="none">
<path d="M2570 5570 l0 -250 75 0 75 0 0 185 0 185 90 0 90 0 0 -185 0 -185
75 0 75 0 0 250 0 250 -240 0 -240 0 0 -250z"/>
<path d="M3130 5500 l0 -180 75 0 75 0 0 70 0 70 45 0 45 0 0 -70 0 -70 75 0
75 0 0 180 0 180 -75 0 -75 0 0 -60 0 -60 -45 0 -45 0 0 60 0 60 -75 0 -75 0
0 -180z"/>
<path d="M3047 5240 c-4 -14 -19 -104 -33 -199 -14 -96 -27 -178 -29 -181 -3
-4 -42 -10 -88 -13 -340 -24 -740 -203 -1000 -446 l-37 -35 -225 224 c-216
215 -225 224 -242 207 -17 -18 -9 -27 205 -235 122 -119 222 -221 222 -225 0
-4 -29 -41 -64 -81 -230 -264 -390 -640 -413 -972 -3 -46 -9 -88 -13 -94 -4
-7 -84 -24 -184 -38 -97 -14 -176 -29 -176 -33 0 -7 40 -15 250 -47 l115 -17
7 -91 c27 -346 196 -739 431 -999 l46 -50 -222 -222 c-211 -212 -221 -224
-204 -240 16 -17 28 -7 240 204 l222 221 80 -70 c266 -233 636 -391 975 -415
50 -3 92 -9 94 -12 2 -3 16 -87 31 -186 15 -99 29 -182 31 -184 10 -10 15 15
39 180 14 96 27 179 29 185 2 6 43 13 93 17 191 12 403 71 598 166 146 72 240
133 364 235 l93 78 227 -226 c215 -215 227 -225 244 -209 16 17 6 29 -209 244
l-226 226 66 79 c229 271 384 625 411 944 4 41 8 89 10 105 l2 30 201 30 c181
28 224 38 211 48 -2 2 -87 16 -189 31 -102 15 -194 29 -206 31 -19 4 -22 14
-28 92 -25 326 -173 673 -404 947 l-74 88 226 227 c202 202 225 229 211 241
-14 12 -42 -12 -238 -208 -122 -122 -227 -222 -233 -222 -6 0 -21 12 -35 26
-13 15 -60 55 -104 89 -266 208 -571 331 -910 365 -60 6 -113 14 -117 18 -3 4
-16 75 -28 157 -36 244 -36 244 -43 215z m-90 -592 c-2 -7 -13 -71 -22 -141
-21 -147 -10 -135 -140 -160 -168 -31 -375 -132 -523 -254 -41 -35 -77 -63
-79 -63 -3 0 -17 8 -31 18 -52 36 -57 36 -29 0 15 -20 27 -43 27 -50 0 -8 -16
-30 -36 -49 -50 -48 -156 -209 -199 -304 -41 -91 -90 -254 -100 -339 -4 -31
-9 -56 -11 -56 -3 0 -66 -9 -140 -21 -75 -11 -138 -18 -142 -15 -3 4 0 51 7
106 76 611 521 1123 1120 1290 158 45 308 63 298 38z m369 -3 c244 -42 463
-135 663 -282 42 -31 123 -103 181 -162 175 -176 299 -382 374 -619 34 -109
75 -327 63 -338 -6 -6 -276 31 -284 39 -2 3 -15 51 -28 108 -50 221 -148 414
-287 565 -38 42 -40 45 -24 62 23 26 20 39 -4 17 -23 -20 -19 -22 -123 65
-157 133 -365 225 -592 263 l-80 13 -17 114 c-9 62 -19 126 -22 141 -5 29 -5
29 43 29 27 0 88 -7 137 -15z m-181 -320 c46 -315 41 -295 73 -295 83 0 302
-93 402 -171 30 -24 92 -82 136 -131 137 -148 217 -336 231 -545 l6 -93 306
-1 c168 0 302 -2 296 -4 -5 -3 -136 -23 -290 -45 -154 -22 -290 -43 -302 -45
-16 -4 -23 -15 -28 -47 -23 -150 -108 -316 -226 -443 -123 -133 -237 -210
-384 -260 -67 -22 -206 -45 -282 -45 l-63 0 -2 -272 -3 -273 -38 260 c-21 143
-41 268 -43 277 -3 11 -19 20 -42 24 -114 19 -240 71 -354 147 -82 55 -225
210 -275 298 -74 131 -123 308 -123 447 l0 62 -257 1 -258 1 220 33 c121 19
238 36 261 40 l41 6 17 72 c43 183 124 324 263 458 97 93 192 155 305 199 83
32 226 60 311 60 l57 0 1 278 c1 152 3 270 5 262 2 -8 20 -123 39 -255z m-238
-22 c-3 -10 -11 -55 -17 -99 -12 -80 -13 -82 -43 -88 -17 -3 -34 -3 -37 1 -7
8 -30 137 -30 167 0 10 17 18 53 24 77 14 79 14 74 -5z m440 -3 l52 -11 -32
-90 -31 -90 -40 6 c-74 12 -73 10 -85 91 -18 121 -19 118 37 111 26 -3 70 -11
99 -17z m-593 -27 c14 -50 27 -166 20 -173 -5 -4 -27 -13 -49 -20 -22 -7 -62
-23 -89 -36 -28 -13 -53 -24 -56 -24 -7 0 -94 160 -89 164 19 17 226 104 251
106 4 0 9 -8 12 -17z m801 -44 c132 -58 127 -47 70 -130 -28 -39 -55 -74 -61
-76 -7 -2 -34 7 -60 20 -27 13 -67 30 -89 37 -22 7 -43 16 -48 19 -4 4 7 47
24 94 37 101 22 98 164 36z m-1018 -193 c13 -30 15 -40 5 -44 -7 -2 -43 -27
-80 -56 l-68 -53 -70 49 c-38 27 -73 53 -78 58 -11 11 42 58 142 128 l76 52
27 -47 c16 -27 36 -66 46 -87z m1263 48 c30 -24 69 -55 85 -69 l30 -26 -40
-34 c-22 -19 -56 -47 -77 -61 l-36 -25 -64 51 c-34 29 -73 57 -85 63 -13 5
-23 14 -23 18 0 4 23 41 52 83 l52 76 25 -17 c14 -9 51 -36 81 -59z m-1541
-207 c28 -37 51 -70 51 -73 0 -2 -22 -32 -49 -67 -26 -34 -53 -72 -60 -84 -12
-23 -12 -22 -86 33 -41 31 -75 60 -75 64 0 24 151 213 161 202 4 -4 30 -38 58
-75z m1738 21 c53 -66 113 -152 113 -162 0 -11 -163 -87 -169 -79 -4 4 -31 39
-60 76 l-52 68 56 79 c31 44 58 80 59 80 1 0 25 -28 53 -62z m-1899 -229 c37
-28 68 -55 70 -59 2 -5 -8 -30 -21 -57 -13 -26 -32 -72 -41 -100 -10 -29 -20
-53 -22 -53 -3 0 -43 10 -90 21 l-86 22 7 34 c11 62 94 243 111 243 2 0 35
-23 72 -51z m2066 -31 c37 -80 80 -207 74 -213 -6 -6 -145 -35 -167 -35 -12 0
-22 13 -30 43 -7 23 -29 76 -47 117 -19 41 -31 76 -27 78 4 1 40 20 78 42 39
22 74 40 78 40 5 0 23 -33 41 -72z m-2167 -240 l84 -22 -7 -41 c-3 -22 -8 -42
-10 -44 -6 -7 -187 -32 -192 -27 -5 5 16 135 24 148 7 11 5 11 101 -14z m2260
-50 c5 -29 8 -55 7 -56 -2 -2 -44 2 -94 9 -72 9 -93 16 -101 31 -6 11 -8 23
-4 26 5 5 91 25 177 41 3 0 10 -23 15 -51z m350 -382 c-21 -245 -131 -534
-284 -748 -76 -106 -225 -257 -337 -341 -104 -77 -284 -172 -407 -215 -100
-35 -245 -68 -345 -77 l-70 -7 20 145 20 145 90 17 c223 40 445 147 602 289
29 25 55 46 60 46 4 0 21 -10 38 -23 17 -13 37 -27 45 -32 17 -10 10 3 -26 51
-13 17 -23 34 -23 38 0 3 24 35 53 70 137 167 232 382 273 621 l9 50 140 21
c77 12 142 22 144 23 2 1 1 -32 -2 -73z m-2771 -81 c47 -227 133 -409 272
-572 l44 -52 -23 -38 -23 -38 31 23 c17 12 34 22 38 22 4 0 32 -23 63 -51 160
-146 405 -263 624 -299 33 -5 63 -12 67 -15 3 -4 15 -70 27 -147 l21 -140 -71
7 c-244 23 -520 128 -733 278 -113 80 -281 248 -360 360 -151 215 -257 492
-279 734 l-7 70 144 -21 144 -21 21 -100z m2423 21 c-6 -42 -17 -76 -22 -76
-6 0 -48 11 -94 25 l-82 25 6 33 c3 17 8 35 12 39 6 7 183 37 189 32 2 -1 -2
-36 -9 -78z m-2203 44 c12 0 30 -88 20 -97 -8 -9 -159 -34 -172 -29 -10 4 -34
107 -34 143 0 6 31 5 88 -3 48 -8 92 -14 98 -14z m2159 -219 c-28 -83 -94
-221 -106 -221 -9 0 -149 99 -149 105 0 1 15 36 33 76 19 41 40 92 47 114 7
22 14 43 16 47 3 3 44 -7 93 -23 l89 -30 -23 -68z m-2115 76 c0 -7 20 -55 43
-108 l44 -96 -83 -41 -84 -42 -15 24 c-21 31 -83 185 -91 223 l-6 29 89 15
c93 16 103 15 103 -4z m1928 -275 c34 -24 62 -49 62 -55 0 -11 -101 -147 -124
-166 -11 -9 -26 5 -70 64 -36 48 -54 80 -49 88 33 53 97 126 107 120 6 -3 39
-26 74 -51z m-1780 -12 c23 -32 42 -62 42 -65 0 -3 -24 -39 -52 -81 l-53 -76
-35 40 c-19 21 -54 67 -78 101 l-44 62 84 39 c46 21 85 39 89 39 3 1 24 -26
47 -59z m244 -237 l57 -40 -46 -69 c-25 -38 -49 -73 -54 -78 -11 -12 -101 48
-174 116 l-58 54 78 57 79 57 31 -29 c16 -16 56 -47 87 -68z m1406 -18 c11
-10 3 -21 -40 -60 -54 -49 -167 -129 -173 -123 -1 1 -21 40 -43 84 l-41 82 69
51 c38 29 72 56 75 62 6 8 113 -59 153 -96z m-278 -105 c22 -44 40 -83 40 -88
0 -16 -220 -112 -255 -112 -11 0 -32 88 -38 163 -2 13 17 26 73 49 41 18 89
40 105 50 17 10 31 18 32 18 2 0 21 -36 43 -80z m-900 4 c36 -13 65 -27 65
-31 0 -19 -38 -159 -45 -167 -13 -14 -204 58 -254 96 -18 14 -17 18 33 91 l52
77 42 -22 c23 -12 71 -32 107 -44z m148 -40 c29 -6 30 -9 41 -80 6 -41 11 -86
11 -100 0 -23 -2 -24 -37 -19 -73 13 -113 26 -113 37 0 6 9 47 21 90 22 80 24
82 77 72z m486 -80 c9 -48 14 -90 11 -93 -4 -8 -144 -35 -150 -30 -1 2 4 48
12 101 16 104 15 103 84 107 26 1 27 -2 43 -85z"/>
<path d="M185 3426 l-40 -12 -3 -57 -3 -58 37 16 c47 19 128 20 144 0 17 -20
3 -54 -27 -66 -13 -5 -44 -9 -69 -9 l-44 0 0 -55 0 -55 58 0 c92 0 135 -48 77
-86 -30 -20 -118 -13 -166 11 l-29 16 0 -61 c0 -57 2 -61 28 -72 15 -6 70 -12
122 -12 81 -1 102 3 143 23 108 53 110 184 4 231 -24 11 -34 19 -23 19 10 1
33 16 52 35 27 27 34 42 34 73 0 55 -19 85 -70 111 -50 25 -155 29 -225 8z"/>
<path d="M5407 3406 c-118 -42 -188 -157 -173 -284 19 -163 147 -244 335 -212
l71 12 0 70 c0 63 -2 69 -17 63 -110 -46 -199 -19 -224 66 -16 52 1 109 43
144 29 25 38 27 97 23 37 -3 74 -8 84 -13 15 -6 17 0 17 63 l0 70 -31 6 c-53
10 -162 6 -202 -8z"/>
<path d="M532 3268 c8 -13 34 -53 57 -90 l42 -67 -61 -91 -61 -90 88 0 88 0
26 58 25 57 26 -57 27 -58 86 0 c47 0 84 3 82 8 -2 4 -28 46 -57 95 l-53 87
49 72 c27 40 53 78 57 85 6 10 -10 13 -73 13 l-81 0 -26 -60 -26 -59 -28 59
-28 60 -87 0 -86 0 14 -22z"/>
<path d="M5682 3248 c8 -13 34 -53 57 -90 l42 -67 -61 -91 -61 -90 89 0 89 0
24 60 23 60 28 -60 27 -60 70 0 c70 0 71 0 71 27 0 15 -19 57 -41 95 l-41 68
41 63 c22 35 41 73 41 85 0 20 -5 22 -66 22 l-65 0 -26 -60 -26 -59 -28 59
-28 60 -87 0 -86 0 14 -22z"/>
<path d="M2580 720 l0 -250 75 0 75 0 0 185 0 185 90 0 90 0 0 -185 0 -185 75
0 75 0 0 250 0 250 -240 0 -240 0 0 -250z"/>
<path d="M3212 761 c-16 -96 -50 -182 -73 -188 -17 -5 -19 -16 -19 -119 l0
-114 60 0 60 0 0 65 0 65 110 0 110 0 0 -65 0 -65 60 0 60 0 0 115 0 115 -30
0 -30 0 0 130 0 130 -148 0 -148 0 -12 -69z m158 -111 l0 -80 -39 0 -39 0 19
61 c10 33 19 69 19 80 0 12 7 19 20 19 18 0 20 -7 20 -80z"/>
</g>
</svg>
