<?xml version="1.0" standalone="no"?>
<!DOCTYPE svg PUBLIC "-//W3C//DTD SVG 20010904//EN"
 "http://www.w3.org/TR/2001/REC-SVG-20010904/DTD/svg10.dtd">
<svg version="1.0" xmlns="http://www.w3.org/2000/svg"
 width="775.000000pt" height="800.000000pt" viewBox="0 0 775.000000 800.000000"
 preserveAspectRatio="xMidYMid meet">

<g transform="translate(0.000000,800.000000) scale(0.100000,-0.100000)"
fill="#424242" stroke="none">
<path d="M3210 7090 l0 -310 95 0 95 0 0 230 0 230 115 0 115 0 0 -230 0 -230
90 0 90 0 0 310 0 310 -300 0 -300 0 0 -310z"/>
<path d="M3910 7005 l0 -225 95 0 95 0 0 90 0 90 55 0 55 0 0 -90 0 -90 95 0
95 0 0 225 0 225 -95 0 -95 0 0 -75 0 -75 -55 0 -55 0 0 75 0 75 -95 0 -95 0
0 -225z"/>
<path d="M3806 6580 c-3 -19 -20 -123 -37 -230 -16 -107 -32 -203 -35 -212 -6
-19 -19 -22 -168 -38 -398 -43 -861 -252 -1166 -526 l-73 -66 -71 69 c-39 37
-163 159 -277 271 -113 111 -213 202 -222 202 -50 0 -9 -49 243 -297 143 -141
262 -264 265 -274 5 -13 -19 -49 -83 -128 -111 -135 -186 -249 -262 -394 -140
-270 -213 -521 -245 -850 -8 -84 3 -78 -240 -118 -185 -31 -220 -38 -212 -45
2 -2 102 -20 222 -39 120 -19 219 -36 221 -38 2 -1 8 -52 14 -112 41 -416 195
-805 450 -1140 38 -49 85 -106 104 -124 20 -19 36 -39 36 -45 0 -6 -120 -130
-266 -277 -258 -260 -285 -294 -246 -307 7 -2 136 118 286 268 l273 271 84
-73 c333 -290 738 -474 1148 -524 69 -8 145 -17 167 -20 l41 -5 27 -167 c44
-273 48 -294 56 -285 5 4 23 105 41 223 17 118 35 219 39 223 3 4 69 14 146
23 427 45 831 219 1178 506 l109 90 251 -249 c313 -311 336 -330 336 -281 0
16 -80 103 -271 294 -176 176 -269 276 -264 284 4 7 45 58 90 115 292 362 454
745 498 1177 8 75 17 140 21 146 3 5 31 12 63 16 113 13 428 67 436 75 10 10
-38 19 -288 56 -212 31 -213 31 -219 53 -3 9 -10 62 -16 117 -44 421 -215 813
-510 1169 l-82 98 63 67 c35 36 157 161 272 277 186 189 230 244 196 244 -14
0 -85 -66 -346 -323 -150 -147 -226 -216 -235 -211 -7 4 -42 33 -78 65 -187
163 -412 300 -642 389 -183 72 -341 110 -572 139 -81 11 -152 23 -157 28 -5 5
-25 110 -44 233 -19 124 -37 229 -38 235 -2 5 -7 -6 -11 -25z m-110 -713 c6
-6 -45 -306 -55 -325 -16 -30 -32 -36 -150 -61 -205 -44 -426 -148 -606 -284
-59 -45 -116 -88 -127 -96 -21 -16 -20 -16 -88 28 -27 18 -25 13 12 -41 10
-14 18 -32 18 -40 0 -7 -26 -42 -57 -78 -118 -135 -231 -333 -288 -505 -38
-114 -74 -261 -75 -305 0 -14 -4 -31 -8 -37 -8 -13 -248 -53 -319 -53 -50 0
-48 -9 -28 141 103 775 672 1413 1441 1614 162 43 311 62 330 42z m454 -8
c331 -54 663 -206 915 -419 300 -254 521 -586 621 -929 33 -115 74 -319 74
-370 l0 -42 -52 7 c-95 11 -299 42 -303 46 -2 2 -19 64 -39 138 -76 295 -172
489 -337 680 -58 67 -69 92 -49 105 6 3 10 11 10 18 0 8 -3 8 -12 -1 -22 -22
-42 -13 -123 54 -217 179 -446 289 -712 343 -55 12 -109 21 -120 21 -10 0 -24
4 -31 8 -15 10 -67 325 -58 349 5 13 19 14 79 9 39 -4 101 -12 137 -17z m-216
-412 c26 -169 51 -318 55 -331 8 -19 19 -25 59 -30 95 -12 276 -85 405 -162
74 -44 249 -213 317 -304 129 -174 190 -343 214 -585 l11 -120 370 -5 c204 -3
357 -8 340 -12 -16 -4 -127 -21 -245 -39 -379 -54 -463 -68 -472 -77 -5 -5
-16 -41 -24 -80 -40 -194 -145 -381 -306 -548 -225 -233 -443 -333 -759 -351
l-116 -6 -6 -180 c-4 -99 -8 -248 -8 -331 l-1 -151 -14 85 c-8 47 -30 193 -50
325 -20 132 -42 246 -48 253 -7 7 -49 21 -95 32 -271 65 -491 216 -682 470
-112 150 -189 378 -205 608 l-7 102 -311 1 c-184 0 -299 4 -281 9 17 5 158 28
315 51 157 23 286 43 288 44 1 2 14 45 28 96 64 243 145 383 319 555 141 140
293 233 460 283 97 29 234 51 316 51 l69 0 0 128 c0 139 12 534 16 530 1 -2
23 -141 48 -311z m-302 -2 c3 -3 -4 -56 -14 -118 -20 -120 -30 -137 -79 -137
-30 0 -32 3 -48 90 -21 120 -21 129 0 141 33 17 131 34 141 24z m509 -10 c46
-9 89 -18 96 -20 9 -3 2 -35 -25 -112 -34 -99 -39 -108 -64 -111 -39 -5 -106
16 -117 36 -13 25 -35 187 -28 206 8 20 33 20 138 1z m-697 -42 c10 -32 26
-147 26 -184 0 -34 -3 -37 -47 -54 -27 -10 -78 -30 -115 -46 -36 -16 -72 -29
-80 -29 -7 0 -37 45 -66 100 l-53 99 53 27 c73 37 240 104 260 104 9 0 19 -8
22 -17z m996 -54 c66 -28 125 -58 131 -66 10 -12 9 -21 -5 -47 -27 -50 -105
-146 -119 -146 -7 0 -62 20 -122 45 -82 33 -111 49 -113 64 -3 21 44 168 60
189 17 20 45 14 168 -39z m-1313 -157 c74 -137 77 -120 -37 -205 l-99 -75 -90
64 c-49 35 -92 68 -95 73 -3 5 18 30 46 56 51 45 215 165 227 165 3 0 25 -35
48 -78z m1574 10 c114 -85 188 -146 189 -154 0 -9 -136 -122 -167 -139 -20
-11 -29 -7 -78 32 -31 24 -77 59 -103 77 -26 19 -49 38 -51 44 -3 10 119 198
129 198 3 0 39 -26 81 -58z m280 -250 c84 -104 159 -214 153 -224 -7 -11 -182
-98 -198 -98 -11 0 -133 150 -142 175 -5 11 123 204 136 205 3 0 26 -26 51
-58z m-2158 -43 c60 -80 66 -94 55 -110 -7 -10 -40 -56 -73 -103 -33 -47 -66
-85 -73 -85 -14 -1 -150 97 -171 123 -10 11 -9 21 3 44 28 54 168 222 186 222
3 0 36 -41 73 -91z m-203 -260 c45 -34 84 -68 87 -75 2 -7 -5 -34 -17 -61 -12
-26 -35 -83 -51 -125 -17 -43 -34 -78 -37 -78 -8 0 -123 27 -174 41 -47 12
-48 29 -12 131 30 84 102 228 114 228 5 0 45 -28 90 -61z m2584 -41 c50 -107
100 -253 92 -266 -7 -12 -176 -45 -206 -40 -18 2 -28 14 -39 43 -8 22 -31 81
-53 132 -21 51 -38 98 -38 106 0 12 171 115 193 117 5 0 28 -42 51 -92z
m-2679 -306 l70 -19 -3 -49 c-1 -26 -6 -52 -11 -57 -13 -13 -228 -43 -237 -34
-9 9 14 168 27 183 10 12 21 11 154 -24z m2794 -42 c13 -60 14 -90 4 -90 -33
0 -208 32 -223 40 -11 6 -20 19 -20 30 0 20 17 27 135 54 93 22 92 22 104 -34z
m441 -457 c0 -190 -96 -514 -222 -753 -105 -198 -260 -391 -441 -549 -222
-194 -516 -347 -799 -416 -94 -23 -336 -61 -343 -53 -3 4 43 338 49 354 2 6
55 21 117 33 278 56 530 175 735 348 40 33 76 63 81 66 6 4 32 -9 59 -28 26
-19 50 -32 52 -30 3 2 -10 23 -27 47 -17 23 -31 47 -31 53 0 7 29 48 64 93
166 210 270 440 329 722 l23 115 165 26 c90 15 170 27 177 28 8 1 12 -17 12
-56z m-3660 16 c85 -12 159 -25 163 -29 4 -4 19 -58 33 -121 35 -155 83 -298
140 -410 60 -121 94 -174 182 -283 l72 -89 -26 -44 -26 -44 41 27 41 27 56
-49 c148 -129 291 -219 462 -290 104 -44 279 -95 374 -109 28 -4 49 -13 53
-23 7 -18 55 -313 55 -337 0 -17 -22 -16 -175 6 -285 42 -616 180 -847 351
-102 76 -267 234 -363 349 -222 266 -386 661 -421 1017 -8 86 -28 80 186 51z
m3235 -66 c-18 -106 -28 -145 -40 -150 -15 -5 -195 43 -209 57 -4 4 -5 26 -1
49 5 29 13 42 28 47 34 11 159 32 195 33 33 1 33 1 27 -36z m-2848 6 l93 -12
10 -36 c23 -82 15 -92 -91 -110 -113 -19 -124 -17 -137 28 -32 105 -26 154 17
145 9 -1 58 -8 108 -15z m2644 -145 c30 -8 80 -25 111 -36 l57 -20 -31 -87
c-41 -115 -117 -271 -133 -271 -11 0 -151 94 -178 120 -5 4 15 61 42 128 28
66 51 122 51 125 0 9 19 57 23 57 2 0 28 -7 58 -16z m-2505 -41 c3 -10 26 -65
50 -123 25 -58 48 -113 51 -122 4 -13 -17 -28 -96 -67 -55 -28 -103 -51 -106
-51 -17 0 -135 283 -135 325 0 21 7 24 73 35 39 6 79 13 87 14 42 10 71 5 76
-11z m2402 -343 c45 -33 82 -66 82 -74 0 -26 -142 -206 -161 -206 -19 0 -93
87 -125 146 -16 29 -16 36 -3 60 16 31 107 134 118 134 4 0 44 -27 89 -60z
m-2224 -10 c25 -34 48 -69 51 -80 4 -13 -12 -47 -55 -110 -33 -49 -65 -90 -70
-90 -23 0 -197 237 -184 250 12 12 186 89 202 90 6 0 32 -27 56 -60z m219
-233 c29 -24 78 -62 109 -84 l57 -40 -62 -92 c-36 -53 -69 -91 -78 -91 -25 0
-125 70 -207 146 l-73 67 93 68 c51 38 97 68 101 69 5 0 32 -19 60 -43z m1757
-27 c113 -73 112 -72 55 -130 -47 -47 -185 -153 -216 -165 -10 -4 -28 23 -66
100 l-53 104 80 61 c43 33 82 65 85 70 12 19 36 10 115 -40z m-252 -205 l52
-105 -35 -23 c-50 -34 -270 -121 -288 -114 -18 7 -40 93 -41 166 l-1 56 125
62 c69 34 127 62 130 62 3 1 29 -46 58 -104z m-1140 15 c46 -18 86 -39 89 -47
7 -17 -35 -176 -52 -199 -10 -14 -20 -13 -103 15 -102 34 -201 81 -221 105
-12 14 -5 30 49 111 l62 94 47 -23 c25 -12 84 -38 129 -56z m221 -69 c28 -28
54 -222 31 -236 -15 -9 -156 23 -169 39 -11 14 6 104 35 175 14 37 20 41 50
41 20 0 42 -8 53 -19z m570 -18 c21 -79 33 -175 24 -184 -10 -10 -134 -39
-167 -39 -17 0 -18 6 -12 67 10 95 26 161 43 178 8 9 33 15 58 15 43 0 45 -1
54 -37z"/>
<path d="M305 4346 c-5 -2 -36 -9 -67 -16 l-58 -11 0 -70 c0 -38 2 -69 4 -69
2 0 20 7 39 15 46 19 147 20 172 1 16 -12 18 -19 10 -42 -14 -38 -48 -54 -117
-54 l-58 0 0 -70 0 -70 68 0 c49 0 76 -5 100 -20 37 -22 40 -38 14 -70 -33
-40 -145 -37 -249 6 -10 4 -13 -11 -13 -59 0 -98 8 -102 184 -102 137 0 142 1
189 28 120 71 125 206 11 273 -43 25 -45 29 -28 38 35 20 83 73 90 99 17 68
-25 142 -97 171 -38 15 -172 30 -194 22z"/>
<path d="M6764 4306 c-161 -51 -253 -225 -210 -396 46 -179 182 -252 410 -220
l86 12 0 78 c0 44 -4 81 -8 84 -5 3 -28 -2 -53 -10 -120 -42 -234 18 -246 129
-7 56 22 122 68 156 29 22 39 23 118 18 47 -2 93 -6 101 -8 12 -3 16 11 18 77
l3 81 -32 7 c-53 10 -212 5 -255 -8z"/>
<path d="M720 4050 l70 -110 -68 -102 c-38 -57 -72 -109 -76 -115 -6 -10 17
-13 99 -13 l107 0 31 70 c18 38 35 70 38 70 3 0 19 -32 37 -71 l32 -72 96 6
c53 3 98 7 100 10 3 2 -25 55 -62 116 l-67 112 67 97 c36 53 66 100 66 105 0
4 -43 7 -95 7 l-95 0 -33 -72 -34 -73 -34 72 -34 72 -107 1 -108 0 70 -110z"/>
<path d="M7090 4134 c0 -3 8 -18 19 -32 10 -15 41 -64 69 -109 l51 -81 -58
-84 c-31 -45 -65 -95 -75 -110 l-18 -28 110 0 110 0 22 63 c13 34 27 66 32 71
4 6 22 -21 40 -62 l32 -73 85 3 c70 2 86 6 89 19 3 18 -32 99 -74 169 l-27 45
46 75 c25 41 49 87 52 102 7 26 5 27 -47 33 -100 13 -107 9 -144 -75 l-33 -75
-36 78 -37 77 -104 0 c-57 0 -104 -3 -104 -6z"/>
<path d="M3230 900 l0 -310 90 0 90 0 0 230 0 230 115 0 115 0 0 -230 0 -230
90 0 90 0 0 310 0 310 -295 0 -295 0 0 -310z"/>
<path d="M4016 950 c-21 -115 -52 -197 -85 -228 -25 -23 -26 -28 -29 -158 l-4
-134 76 0 76 0 0 80 0 80 140 0 140 0 0 -80 0 -80 70 0 70 0 0 140 0 140 -35
0 -35 0 0 165 0 165 -184 0 -183 0 -17 -90z m194 -140 l0 -100 -45 0 c-25 0
-45 4 -45 10 0 9 35 146 45 178 3 6 14 12 25 12 19 0 20 -6 20 -100z"/>
</g>
</svg>
